<svg width="90" height="90" viewBox="0 0 90 90" fill="none" xmlns="http://www.w3.org/2000/svg">
<rect width="90" height="90" rx="45" fill="#E77C40"/>
<path d="M30.2038 37.224H33.9478V54H30.2038L22.2118 43.488V54H18.4678V37.224H21.9718L30.2038 48.024V37.224ZM49.009 52.128C47.553 53.504 45.841 54.192 43.873 54.192C41.921 54.192 40.305 53.592 39.025 52.392C37.745 51.176 37.105 49.552 37.105 47.52C37.105 45.488 37.753 43.872 39.049 42.672C40.361 41.472 41.905 40.872 43.681 40.872C45.457 40.872 46.961 41.408 48.193 42.48C49.441 43.552 50.065 45.024 50.065 46.896V48.816H40.657C40.769 49.52 41.137 50.096 41.761 50.544C42.385 50.992 43.089 51.216 43.873 51.216C45.137 51.216 46.177 50.792 46.993 49.944L49.009 52.128ZM46.417 46.248C46.337 45.48 46.049 44.888 45.553 44.472C45.057 44.056 44.449 43.848 43.729 43.848C43.025 43.848 42.377 44.064 41.785 44.496C41.193 44.928 40.849 45.512 40.753 46.248H46.417ZM59.3637 54H55.6437L51.2517 41.088H54.9717L57.4917 48.888L60.0117 41.088H63.4917L66.0117 48.888L68.5317 41.088H72.2757L67.8837 54H64.1397L61.7637 46.968L59.3637 54Z" fill="white"/>
</svg>
